# xmcd
#
# Track frame offsets:
#	150
#	19902
#	34997
#	55037
#	75862
#	92070
#	109637
#	126990
#	141262
#	160677
#	179137
#	200545
#	216025
#	232637
#	248337
#
# Disc length: 3511 seconds
#
# Revision: 0
# Processed by: cddbd v1.5.1PL0 Copyright (c) Steve Scherf et al.
# Submitted via: dBpowerAMP V4.0
#
DISCID=bd0db50f
DTITLE=Roberto Carlos - 84 Canciones de Amor CD-4
DYEAR=1991
DGENRE=Balada
TTITLE0=Pleno verano
TTITLE1=Música Suave
TTITLE2=De Corazón a Corazón
TTITLE3=La Paz de Tu Sonrisa
TTITLE4=Mi Querido, Mi Viejo, Mi Amigo
TTITLE5=No Te Olvides de Mi
TTITLE6=El Amor y La Moda
TTITLE7=Ilegal, Inmortal ou Engorda
TTITLE8=No te Apartes de Mí
TTITLE9=Sabores
TTITLE10=Yo Y Ella
TTITLE11=Esta Tarde Vi Llover
TTITLE12=Desahogo
TTITLE13=Me Vuelves Loco
TTITLE14=Emociones
EXTD=84 Canciones de Amor con Roberto Carlos Reader's Digest  6 CD's
EXTT0=
EXTT1=
EXTT2=
EXTT3=
EXTT4=
EXTT5=
EXTT6=
EXTT7=
EXTT8=
EXTT9=
EXTT10=
EXTT11=
EXTT12=
EXTT13=
EXTT14=
PLAYORDER=
